<?xml version="1.0" standalone="no"?>
<!DOCTYPE svg PUBLIC "-//W3C//DTD SVG 20010904//EN"
 "http://www.w3.org/TR/2001/REC-SVG-20010904/DTD/svg10.dtd">
<svg version="1.0" xmlns="http://www.w3.org/2000/svg"
 width="1000.000000pt" height="1000.000000pt" viewBox="0 0 1000.000000 1000.000000"
 preserveAspectRatio="xMidYMid meet">

<g transform="translate(0.000000,1000.000000) scale(0.100000,-0.100000)"
fill="#000000" stroke="none">
<path d="M0 5000 l0 -5000 5000 0 5000 0 0 5000 0 5000 -5000 0 -5000 0 0
-5000z m5205 4150 c125 -39 202 -86 300 -185 73 -72 99 -107 133 -175 67 -135
74 -175 80 -435 l5 -230 151 -50 c184 -61 434 -183 601 -292 653 -430 1071
-1082 1198 -1867 20 -125 21 -178 27 -1091 6 -946 6 -961 27 -1037 24 -83 75
-193 122 -262 16 -22 145 -174 288 -337 274 -312 311 -358 347 -442 143 -323
3 -722 -312 -885 -155 -80 -84 -75 -1131 -82 l-934 -5 -13 -65 c-67 -328 -290
-619 -592 -770 -289 -144 -619 -158 -918 -40 -242 97 -451 286 -571 518 -48
93 -94 217 -108 292 -4 19 -9 43 -11 52 -5 16 -67 18 -937 21 -1045 3 -974 -2
-1129 79 -155 80 -279 227 -334 394 -26 81 -29 101 -28 224 0 120 3 143 26
208 15 41 42 99 60 129 18 31 152 191 297 357 146 165 278 319 294 341 67 92
127 242 147 365 6 41 10 387 10 925 0 682 3 888 15 997 89 840 552 1574 1278
2027 154 95 403 208 593 267 l92 29 4 235 c4 221 6 240 31 315 80 243 292 438
532 490 98 21 268 14 360 -15z"/>
<path d="M4907 8746 c-59 -22 -114 -62 -147 -108 -48 -65 -60 -124 -60 -282
l0 -141 301 0 301 0 -4 160 c-3 151 -4 163 -31 217 -30 62 -75 106 -140 140
-53 27 -166 34 -220 14z"/>
<path d="M4775 7794 c-342 -49 -540 -107 -800 -236 -226 -113 -432 -265 -615
-454 -319 -331 -522 -728 -607 -1189 l-26 -140 -7 -970 c-6 -932 -7 -974 -27
-1060 -39 -170 -100 -313 -193 -450 -26 -38 -168 -207 -315 -375 -148 -168
-276 -323 -286 -345 -11 -23 -19 -64 -19 -96 0 -108 49 -193 142 -245 l53 -29
2925 0 2925 0 54 30 c100 56 148 145 138 261 -3 38 -13 77 -26 99 -11 19 -132
162 -268 316 -137 155 -271 311 -299 348 -63 84 -143 240 -178 346 -62 189
-59 133 -66 1195 -8 1075 -5 1022 -75 1300 -57 225 -168 474 -302 675 -357
539 -899 890 -1543 1000 -91 16 -512 29 -585 19z"/>
<path d="M4326 1753 c8 -39 67 -164 98 -210 77 -114 220 -221 361 -269 72 -26
93 -28 215 -28 122 0 143 2 215 28 209 72 375 237 445 442 11 32 20 59 20 61
0 1 -306 3 -680 3 l-680 0 6 -27z"/>
</g>
</svg>
