<?xml version="1.0" encoding="UTF-8"?>
<svg version="1.1" viewBox="0 0 1000 1000" width="1280" height="1280" xmlns="http://www.w3.org/2000/svg">
<path transform="translate(0)" d="m0 0h1e3v1e3h-1e3z" fill="#187171"/>
<path transform="translate(853,650)" d="m0 0 11 1 6 3v2l4 2 5 8 1 3v13l-6 8-9 6-11 6-24 12-17 7-11 5-10 3-7 3-23 7-18 5-16 4-18 3-16 3-30 3-13 1h-51l-32-4-24-4-23-6-20-6-16-6-25-10-16-8v-2l-5-1-7-4v-2l-4-1-7-8-2-6 1-10 5-9 7-6 7-2h7l13 4 19 9 14 7 26 10 18 6 29 6 27 4 16 1h48l32-3 25-5 30-7 21-7 10-3 16-6 11-5 9-4 12-5 26-13z" fill="#FFFFFE"/>
<path transform="translate(818,346)" d="m0 0h11l11 2 11 5 11 7v2h2l8 10 6 12 2 8v21l-4 13-4 8-8 10-14 10-10 4-8 2h-16l-9-2-16-8-9-8v-2h-2l-6-9-6-15-1-16 3-16 8-16h2l2-4 8-7 8-5 10-4z" fill="#FFFFFE"/>
<path transform="translate(216,346)" d="m0 0h11l16 4 9 5 9 7 7 8 2 3v3h2l4 11 2 9v12l-2 11-5 13h-2l-2 5-10 11-14 8-10 3-5 1h-12l-11-2-10-4-8-5-11-11-6-10-4-10-1-6v-18l4-14 7-12h2l2-4 10-9 9-5 11-3z" fill="#FFFFFE"/>
</svg>
